<svg width="30" height="30" viewBox="0 0 30 30" fill="none" xmlns="http://www.w3.org/2000/svg">
<rect width="30" height="29.3291" rx="14.6645" fill="#F40000"/>
<path fill-rule="evenodd" clip-rule="evenodd" d="M8.44687 19.8387C8.15267 19.7536 7.88424 19.6023 7.66422 19.3974C7.4442 19.1925 7.27905 18.9401 7.18271 18.6615C6.63219 17.2215 6.46907 11.2087 7.52933 10.0217C7.88221 9.63561 8.38042 9.39788 8.91583 9.36014C11.7602 9.06826 20.5481 9.10718 21.5574 9.45744C21.8413 9.54533 22.1006 9.69339 22.316 9.89053C22.5314 10.0877 22.6973 10.3288 22.8012 10.5958C23.4027 12.0844 23.423 17.4939 22.7196 18.9242C22.533 19.2965 22.2206 19.598 21.8327 19.7804C20.7724 20.2863 9.85375 20.2766 8.44687 19.8387ZM12.9632 17.0172L18.0606 14.4876L12.9632 11.9384V17.0172Z" fill="white"/>
</svg>
